<svg width="51" height="52" viewBox="0 0 51 52" fill="none" xmlns="http://www.w3.org/2000/svg">
<path d="M16.6926 4.592C16.6926 5.072 16.5886 5.432 16.3806 5.672C16.1886 5.912 15.8686 6.032 15.4206 6.032C15.3886 6.368 15.3166 6.952 15.2046 7.784C15.0446 8.904 14.9566 9.528 14.9406 9.656C13.5166 20.264 10.5486 25.568 6.03659 25.568C4.70859 25.568 3.66859 25.192 2.91659 24.44C2.18059 23.688 1.81259 22.744 1.81259 21.608C1.81259 19.576 2.67659 17.784 4.40459 16.232C6.13259 14.664 8.40459 13.368 11.2206 12.344C11.3966 11.208 11.5326 10.192 11.6286 9.296L12.0606 5.672C11.1006 5.576 10.2046 5.528 9.37259 5.528C7.14859 5.528 5.50859 5.744 4.45259 6.176C3.39659 6.608 2.86859 7.312 2.86859 8.288C2.86859 8.768 3.02859 9.288 3.34859 9.848C3.44459 10.008 3.49259 10.176 3.49259 10.352C3.49259 10.688 3.31659 10.992 2.96459 11.264C2.62859 11.52 2.26059 11.648 1.86059 11.648C1.34859 11.648 0.956594 11.432 0.684594 11C0.236594 10.264 0.0125938 9.408 0.0125938 8.432C0.0125938 4.592 3.37259 2.672 10.0926 2.672C12.0446 2.672 13.7886 2.864 15.3246 3.248C16.2366 3.472 16.6926 3.92 16.6926 4.592ZM6.34859 23C7.13259 23 7.91659 22.408 8.70059 21.224C9.48459 20.04 10.1726 17.968 10.7646 15.008C6.86059 16.72 4.90859 18.816 4.90859 21.296C4.90859 21.84 5.03659 22.264 5.29259 22.568C5.54859 22.856 5.90059 23 6.34859 23ZM18.7836 23.12C18.0636 23.12 17.4716 22.792 17.0076 22.136C16.5596 21.464 16.3356 20.632 16.3356 19.64C16.3356 18.44 16.4156 17.344 16.5756 16.352C16.7356 15.344 16.9996 14.28 17.3676 13.16C17.5276 12.68 17.7516 12.336 18.0396 12.128C18.3276 11.92 18.7836 11.816 19.4076 11.816C19.7596 11.816 19.9996 11.872 20.1276 11.984C20.2716 12.096 20.3436 12.264 20.3436 12.488C20.3436 12.616 20.2556 13.048 20.0796 13.784C19.9196 14.376 19.7916 14.912 19.6956 15.392C19.3756 17.072 19.2156 18.192 19.2156 18.752C19.2156 19.088 19.2556 19.328 19.3356 19.472C19.4156 19.6 19.5436 19.664 19.7196 19.664C19.9596 19.664 20.2556 19.424 20.6076 18.944C20.9756 18.464 21.3596 17.736 21.7596 16.76C22.1756 15.784 22.5756 14.584 22.9596 13.16C23.0876 12.68 23.2796 12.336 23.5356 12.128C23.8076 11.92 24.2076 11.816 24.7356 11.816C25.1036 11.816 25.3596 11.864 25.5036 11.96C25.6476 12.04 25.7196 12.2 25.7196 12.44C25.7196 12.84 25.5196 13.936 25.1196 15.728C24.6716 17.776 24.4476 19.04 24.4476 19.52C24.4476 19.824 24.5116 20.064 24.6396 20.24C24.7676 20.4 24.9356 20.48 25.1436 20.48C25.4636 20.48 25.8396 20.288 26.2716 19.904C26.7196 19.504 27.3116 18.864 28.0476 17.984C28.2396 17.76 28.4556 17.648 28.6956 17.648C28.9036 17.648 29.0636 17.744 29.1756 17.936C29.3036 18.128 29.3676 18.392 29.3676 18.728C29.3676 19.368 29.2156 19.864 28.9116 20.216C28.2236 21.064 27.4796 21.76 26.6796 22.304C25.8956 22.848 24.9996 23.12 23.9916 23.12C23.2236 23.12 22.6556 22.824 22.2876 22.232C21.9356 21.64 21.7596 20.808 21.7596 19.736C21.4876 20.824 21.0796 21.664 20.5356 22.256C19.9916 22.832 19.4076 23.12 18.7836 23.12ZM29.1255 23.12C28.5175 23.12 28.0855 22.8 27.8295 22.16C27.5895 21.52 27.4695 20.496 27.4695 19.088C27.4695 17.008 27.7655 15.032 28.3575 13.16C28.5015 12.696 28.7335 12.36 29.0535 12.152C29.3895 11.928 29.8535 11.816 30.4455 11.816C30.7655 11.816 30.9895 11.856 31.1175 11.936C31.2455 12.016 31.3095 12.168 31.3095 12.392C31.3095 12.648 31.1895 13.224 30.9495 14.12C30.7895 14.76 30.6615 15.32 30.5655 15.8C30.4695 16.28 30.3895 16.872 30.3255 17.576C30.8535 16.2 31.4455 15.08 32.1015 14.216C32.7575 13.352 33.3975 12.736 34.0215 12.368C34.6615 12 35.2455 11.816 35.7735 11.816C36.8135 11.816 37.3335 12.336 37.3335 13.376C37.3335 14 37.1575 15.128 36.8055 16.76C36.5015 18.152 36.3495 19.072 36.3495 19.52C36.3495 20.16 36.5815 20.48 37.0455 20.48C37.3655 20.48 37.7415 20.288 38.1735 19.904C38.6215 19.504 39.2135 18.864 39.9495 17.984C40.1415 17.76 40.3575 17.648 40.5975 17.648C40.8055 17.648 40.9655 17.744 41.0775 17.936C41.2055 18.128 41.2695 18.392 41.2695 18.728C41.2695 19.368 41.1175 19.864 40.8135 20.216C40.1255 21.064 39.3815 21.76 38.5815 22.304C37.7975 22.848 36.9015 23.12 35.8935 23.12C35.0775 23.12 34.4615 22.888 34.0455 22.424C33.6295 21.944 33.4215 21.256 33.4215 20.36C33.4215 19.912 33.5335 19.112 33.7575 17.96C33.9655 16.952 34.0695 16.256 34.0695 15.872C34.0695 15.616 33.9815 15.488 33.8055 15.488C33.5975 15.488 33.3015 15.76 32.9175 16.304C32.5495 16.832 32.1655 17.536 31.7655 18.416C31.3815 19.296 31.0695 20.224 30.8295 21.2C30.6535 21.952 30.4455 22.464 30.2055 22.736C29.9815 22.992 29.6215 23.12 29.1255 23.12ZM49.5278 20.504C50.1838 20.632 50.5118 20.992 50.5118 21.584C50.5118 21.984 50.3278 22.344 49.9598 22.664C49.6078 22.968 49.0958 23.12 48.4238 23.12C47.2718 23.12 46.3278 22.768 45.5918 22.064C44.8718 21.344 44.5118 20.408 44.5118 19.256C44.5118 18.632 44.8318 18.184 45.4718 17.912C46.1758 17.608 46.6798 17.288 46.9838 16.952C47.2878 16.6 47.4398 16.176 47.4398 15.68C47.4398 15.392 47.3758 15.176 47.2478 15.032C47.1358 14.888 46.9918 14.816 46.8158 14.816C46.3838 14.816 45.9038 15.128 45.3758 15.752C44.8638 16.376 44.3838 17.184 43.9358 18.176C43.4878 19.152 43.1358 20.16 42.8798 21.2C42.7038 21.952 42.4958 22.464 42.2558 22.736C42.0318 22.992 41.6718 23.12 41.1758 23.12C40.6798 23.12 40.3118 22.944 40.0718 22.592C39.8478 22.224 39.6958 21.664 39.6158 20.912C39.5358 20.16 39.4958 19.056 39.4958 17.6C39.4958 15.136 39.7438 12.568 40.2398 9.896C40.7518 7.224 41.4958 4.984 42.4718 3.176C43.4638 1.352 44.6478 0.439999 46.0238 0.439999C46.7598 0.439999 47.3518 0.759999 47.7998 1.4C48.2638 2.024 48.4958 2.84 48.4958 3.848C48.4958 5.464 48.0238 7.144 47.0798 8.888C46.1358 10.616 44.5998 12.64 42.4718 14.96C42.4238 15.792 42.3998 16.648 42.3998 17.528C43.1678 15.528 44.0478 14.08 45.0398 13.184C46.0318 12.272 46.9598 11.816 47.8238 11.816C48.6238 11.816 49.2638 12.088 49.7438 12.632C50.2398 13.176 50.4878 13.848 50.4878 14.648C50.4878 15.528 50.2638 16.336 49.8158 17.072C49.3678 17.808 48.5998 18.464 47.5118 19.04C47.6078 19.52 47.7998 19.856 48.0878 20.048C48.3918 20.224 48.8718 20.376 49.5278 20.504ZM45.5198 2.816C45.2318 2.816 44.9118 3.232 44.5598 4.064C44.2078 4.88 43.8638 5.992 43.5278 7.4C43.2078 8.792 42.9438 10.312 42.7358 11.96C43.7278 10.792 44.5438 9.52 45.1838 8.144C45.8398 6.768 46.1678 5.52 46.1678 4.4C46.1678 3.888 46.1118 3.496 45.9998 3.224C45.8878 2.952 45.7278 2.816 45.5198 2.816Z" fill="black"/>
<path d="M9.66875 46.12C8.56475 46.12 7.56475 45.848 6.66875 45.304C5.78875 44.76 5.09275 43.976 4.58075 42.952C4.06875 41.912 3.81275 40.688 3.81275 39.28C3.81275 36.848 4.33275 34.6 5.37275 32.536C6.41275 30.456 7.94875 28.792 9.98075 27.544C12.0128 26.28 14.4528 25.648 17.3008 25.648C18.0368 25.648 18.8208 25.704 19.6528 25.816C20.5008 25.928 21.2688 26.096 21.9568 26.32C22.4048 26.448 22.6288 26.768 22.6288 27.28C22.6288 27.696 22.4688 28.088 22.1488 28.456C21.8448 28.824 21.4848 29.008 21.0688 29.008C20.9408 29.008 20.8448 29 20.7808 28.984C19.9488 28.792 19.2368 28.656 18.6448 28.576C18.0528 28.48 17.4288 28.432 16.7728 28.432C14.7408 28.432 13.0128 28.928 11.5888 29.92C10.1648 30.896 9.10075 32.192 8.39675 33.808C7.69275 35.424 7.34075 37.168 7.34075 39.04C7.34075 40.4 7.60475 41.456 8.13275 42.208C8.67675 42.944 9.38075 43.312 10.2448 43.312C11.2208 43.312 12.0768 42.912 12.8128 42.112C13.5488 41.312 14.2208 40.016 14.8288 38.224C15.4368 36.432 16.0368 34 16.6288 30.928C16.7248 30.48 16.9168 30.176 17.2048 30.016C17.4928 29.856 17.8768 29.776 18.3568 29.776C19.4928 29.776 20.0608 30.144 20.0608 30.88C20.0608 31.008 20.0368 31.168 19.9888 31.36C19.5728 32.912 19.1888 34.632 18.8368 36.52C18.5008 38.392 18.3328 39.816 18.3328 40.792C18.3328 41.656 18.4608 42.288 18.7168 42.688C18.9728 43.072 19.3648 43.264 19.8928 43.264C20.4048 43.264 20.8928 43.096 21.3568 42.76C21.8208 42.408 22.4048 41.816 23.1088 40.984C23.3008 40.76 23.5168 40.648 23.7568 40.648C23.9648 40.648 24.1248 40.744 24.2368 40.936C24.3648 41.128 24.4288 41.392 24.4288 41.728C24.4288 42.352 24.2768 42.848 23.9728 43.216C23.1888 44.16 22.4208 44.88 21.6688 45.376C20.9168 45.872 19.9968 46.12 18.9088 46.12C17.7888 46.12 16.8848 45.8 16.1968 45.16C15.5088 44.504 15.0768 43.584 14.9008 42.4C13.7168 44.88 11.9728 46.12 9.66875 46.12ZM32.5919 40.648C32.7999 40.648 32.9599 40.744 33.0719 40.936C33.1999 41.128 33.2639 41.392 33.2639 41.728C33.2639 42.336 33.1119 42.832 32.8079 43.216C32.2639 43.888 31.6319 44.456 30.9119 44.92C30.2079 45.368 29.4719 45.696 28.7039 45.904C29.3279 46.432 29.6399 47.152 29.6399 48.064C29.6399 48.816 29.4559 49.488 29.0879 50.08C28.7359 50.688 28.2159 51.16 27.5279 51.496C26.8559 51.832 26.0639 52 25.1519 52C24.5439 52 24.0479 51.96 23.6639 51.88C23.0399 51.768 22.7279 51.416 22.7279 50.824C22.7279 50.104 23.0479 49.744 23.6879 49.744C23.8159 49.744 23.9199 49.752 23.9999 49.768C24.4319 49.832 24.8559 49.864 25.2719 49.864C25.9119 49.864 26.4079 49.728 26.7599 49.456C27.1279 49.2 27.3119 48.8 27.3119 48.256C27.3119 47.856 27.1359 47.536 26.7839 47.296C26.4479 47.072 25.9839 46.96 25.3919 46.96C24.9759 46.96 24.6559 46.904 24.4319 46.792C24.2079 46.68 24.0959 46.488 24.0959 46.216C24.0959 46.12 24.1039 46.048 24.1199 46C24.1679 45.76 24.2399 45.584 24.3359 45.472C23.6159 45.088 23.0639 44.528 22.6799 43.792C22.2959 43.056 22.1039 42.216 22.1039 41.272C22.1039 39.976 22.3599 38.84 22.8719 37.864C23.3839 36.888 24.0479 36.136 24.8639 35.608C25.6799 35.08 26.5359 34.816 27.4319 34.816C28.3119 34.816 28.9919 35.08 29.4719 35.608C29.9679 36.12 30.2159 36.784 30.2159 37.6C30.2159 38.272 30.0639 38.84 29.7599 39.304C29.4719 39.768 29.0879 40 28.6079 40C28.3039 40 28.0559 39.928 27.8639 39.784C27.6879 39.64 27.5999 39.44 27.5999 39.184C27.5999 39.072 27.6159 38.944 27.6479 38.8C27.6799 38.656 27.7039 38.552 27.7199 38.488C27.7999 38.248 27.8399 38.024 27.8399 37.816C27.8399 37.608 27.7839 37.448 27.6719 37.336C27.5759 37.224 27.4319 37.168 27.2399 37.168C26.8719 37.168 26.5279 37.336 26.2079 37.672C25.8879 37.992 25.6319 38.432 25.4399 38.992C25.2479 39.552 25.1519 40.168 25.1519 40.84C25.1519 42.696 25.9599 43.624 27.5759 43.624C28.2319 43.624 28.9359 43.408 29.6879 42.976C30.4559 42.528 31.2079 41.864 31.9439 40.984C32.1359 40.76 32.3519 40.648 32.5919 40.648ZM34.0415 46.12C33.0495 46.12 32.2575 45.76 31.6655 45.04C31.0735 44.32 30.7775 43.376 30.7775 42.208C30.7775 40.928 31.0735 39.72 31.6655 38.584C32.2575 37.432 33.0415 36.512 34.0175 35.824C35.0095 35.12 36.0575 34.768 37.1615 34.768C37.5135 34.768 37.7455 34.84 37.8575 34.984C37.9855 35.112 38.0895 35.352 38.1695 35.704C38.5055 35.64 38.8575 35.608 39.2255 35.608C40.0095 35.608 40.4015 35.888 40.4015 36.448C40.4015 36.784 40.2815 37.584 40.0415 38.848C39.6735 40.688 39.4895 41.968 39.4895 42.688C39.4895 42.928 39.5455 43.12 39.6575 43.264C39.7855 43.408 39.9455 43.48 40.1375 43.48C40.4415 43.48 40.8095 43.288 41.2415 42.904C41.6735 42.504 42.2575 41.864 42.9935 40.984C43.1855 40.76 43.4015 40.648 43.6415 40.648C43.8495 40.648 44.0095 40.744 44.1215 40.936C44.2495 41.128 44.3135 41.392 44.3135 41.728C44.3135 42.368 44.1615 42.864 43.8575 43.216C43.2015 44.032 42.5055 44.72 41.7695 45.28C41.0335 45.84 40.3215 46.12 39.6335 46.12C39.1055 46.12 38.6175 45.944 38.1695 45.592C37.7375 45.224 37.4095 44.728 37.1855 44.104C36.3535 45.448 35.3055 46.12 34.0415 46.12ZM34.9055 43.696C35.2575 43.696 35.5935 43.488 35.9135 43.072C36.2335 42.656 36.4655 42.104 36.6095 41.416L37.4975 37C36.8255 37.016 36.2015 37.272 35.6255 37.768C35.0655 38.248 34.6175 38.888 34.2815 39.688C33.9455 40.488 33.7775 41.336 33.7775 42.232C33.7775 42.728 33.8735 43.096 34.0655 43.336C34.2735 43.576 34.5535 43.696 34.9055 43.696ZM43.3709 46.12C42.8589 46.12 42.5069 46.016 42.3149 45.808C42.1229 45.6 42.0269 45.272 42.0269 44.824C42.0269 44.696 42.0429 44.472 42.0749 44.152C42.3309 41.224 42.7549 38.56 43.3469 36.16C43.4749 35.664 43.6829 35.32 43.9709 35.128C44.2749 34.92 44.7549 34.816 45.4109 34.816C46.0989 34.816 46.4429 35.096 46.4429 35.656C46.4429 35.736 46.4269 35.888 46.3949 36.112C45.6749 39.536 45.2429 42.408 45.0989 44.728C45.0669 45.24 44.9149 45.6 44.6429 45.808C44.3709 46.016 43.9469 46.12 43.3709 46.12ZM45.4109 33.232C45.1869 33.232 44.9869 33.152 44.8109 32.992C44.6509 32.816 44.5709 32.608 44.5709 32.368C44.5709 32.256 44.6109 32.104 44.6909 31.912L46.9229 26.92C47.0669 26.6 47.2509 26.368 47.4749 26.224C47.7149 26.064 47.9789 25.984 48.2669 25.984C48.6669 25.984 49.0189 26.128 49.3229 26.416C49.6429 26.704 49.8029 27.064 49.8029 27.496C49.8029 27.944 49.6269 28.392 49.2749 28.84L46.1789 32.824C45.9709 33.096 45.7149 33.232 45.4109 33.232Z" fill="#8900CA"/>
</svg>
